<svg aria-labelledby="folksamLogo" color="#009CE0" height="100%" viewBox="0 0 4832 1024" width="100%" xmlns="http://www.w3.org/2000/svg"><title id="folksamLogo">Folksam logo</title><path d="M 3695.23 932.096 c -30.272 0 -40.16 -36.288 -40.16 -84.736 V 495.328 c 0 -116.8 -79.808 -185.728 -239.968 -185.728 c -161.632 0 -302.016 89.408 -302.016 198.848 c 0 54.08 43.456 90.464 104.192 90.464 c 56.352 0 93.888 -32.096 93.888 -78.848 c 0 -52.416 -44.864 -69.952 -44.864 -99.52 c 0 -33.344 43.456 -59.744 98.24 -59.744 c 65.056 0 97.216 38.72 97.216 91.2 v 127.36 l -143.488 69.28 c -144.448 70.272 -213.696 152.192 -213.696 235.36 c 0 78.624 57.76 140 132.768 140 c 49.312 0 106.976 -20.48 153.184 -56.736 l 71.232 -55.968 c 8.544 70.048 48.64 112.736 123.68 112.736 c 71.008 0 131.584 -40.672 160.704 -107.744 l -13.44 -13.344 c -12.768 22.048 -21.536 29.184 -37.472 29.184 Z m -233.472 -72.032 l -91.296 39.904 c -40.512 0 -76.224 -32.16 -76.608 -79.008 c -0.288 -79.968 63.872 -136.416 167.904 -190.496 v 229.6 Z m -751.264 -375.072 c -14.4 -14.56 -25.792 -34.912 -25.792 -54.08 c 0 -39.328 38.784 -70.112 89.504 -70.112 c 95.232 0 174.624 68.64 216.608 178.304 h 17.472 V 309.6 h -16.064 c -18.88 29.184 -36.16 42.464 -59.264 42.464 c -33.248 0 -89.6 -42.464 -170.336 -42.464 c -120.096 0 -213.76 90.688 -213.76 207.552 c 0 57.056 17.248 100.832 63.264 147.424 c 68.032 68.864 206.592 98.048 271.616 163.84 c 15.968 15.968 24.704 32.032 24.704 58.528 c 0 48.128 -44.864 85.952 -104 85.952 c -96.672 0 -174.016 -69.952 -223.168 -191.392 h -15.968 v 241.12 h 12.8 c 13.28 -31.936 27.776 -45.024 47.744 -45.024 c 31.904 0 109.12 46.432 196.256 46.432 c 132.288 0 232.416 -93.376 232.416 -219.104 c 0 -55.36 -20.448 -105.024 -60.768 -146.144 c -82.56 -83.104 -222.688 -112.32 -283.296 -173.76 Z m 2054.5 412 V 499.616 c 0 -116.864 -66.496 -190.016 -174.816 -190.016 c -79.424 0 -155.936 45.44 -209.44 124.256 c -17.376 -77.344 -79.392 -124.256 -167.744 -124.256 c -72.064 0 -131.264 35.328 -190.528 110.944 h -2.784 v -94.88 h -264.32 v 26.432 c 50.528 4.448 66.4 36.608 66.4 103.744 v 422.24 c 0 60.064 -10.176 93.568 -66.4 99.52 v 25.952 h 327.84 V 977.6 c -41.856 -5.952 -63.52 -32.16 -63.52 -93.568 V 493.856 c 38.976 -61.408 73.632 -87.616 112.416 -87.616 c 42.08 0 62.304 30.336 62.304 84.704 V 880.96 c 0 61.504 -17.28 90.688 -60.512 96.64 v 25.952 h 320.544 V 977.6 c -44.864 -7.488 -62.4 -36.704 -62.4 -92.096 V 493.856 c 47.84 -67.168 76.768 -89.088 117.312 -89.088 c 40.32 0 57.632 39.296 57.632 77.344 v 394.432 c 0 64.32 -15.808 96.352 -62.016 100.992 v 25.952 h 323.264 v -25.952 c -40.16 -1.664 -63.264 -36.704 -63.264 -80.576 Z m -2372.22 -62.72 L 2213.76 556.48 l 59.296 -68.48 c 92.256 -106.72 131.392 -127.2 194.752 -135.936 v -26.432 h -288.896 v 26.432 c 52.128 0 76.768 14.56 76.768 51.136 c 0 29.248 -11.488 46.88 -59.168 103.744 l -137.28 160.64 V 0.032 h -286.08 V 26.24 c 66.336 -4.192 87.968 23.296 87.968 97.888 V 878.08 c 0 67.36 -15.712 102.272 -87.968 99.52 v 25.952 h 366.88 V 977.6 c -62.016 -1.664 -80.832 -32.16 -80.832 -93.568 v -147.52 l 31.616 -36.608 l 128.736 204.576 c 10.048 15.872 18.88 35.136 18.88 45.056 c 0 17.76 -10.24 23.424 -41.92 28.096 v 25.952 h 332.128 v -25.952 c -34.752 -2.976 -67.904 -37.952 -135.84 -143.296 Z M 1046.62 309.6 c -183.328 0 -316.416 149.216 -316.416 355.008 c 0 241.344 170.496 359.392 322.336 359.392 c 125.408 0 316.16 -94.848 316.16 -354.912 c 0 -232.512 -150.144 -359.488 -322.08 -359.488 Z m 2.88 663.296 c -93.952 0 -111.392 -91.968 -111.392 -341.664 c 0 -198.816 33.472 -270.464 109.76 -270.464 c 105.6 0 112.832 112.576 112.832 347.808 c -0.032 205.984 -34.624 264.352 -111.168 264.352 Z M 416.128 471.872 H 371.36 V 54.112 h 170.368 c 160.32 0 236.928 58.272 255.68 220.352 h 25.952 V 0 H 0 v 26.208 c 109.952 -2.944 141.568 19.04 141.568 134.432 v 683.744 c 0 100.992 -18.624 138.944 -141.568 133.152 v 25.952 h 522.912 v -25.952 c -122.72 5.76 -150.144 -24.992 -150.144 -133.152 v -326.56 h 27.424 c 134.368 0 203.616 72.96 210.944 223.552 H 640 V 259.968 h -28.864 c -2.88 140.288 -80.928 211.904 -194.976 211.904 Z m 1247.9 431.072 V 0 h -285.92 v 26.208 c 63.36 -1.472 88.192 19.04 88.192 93.408 V 892.64 c 0 58.56 -26.048 84.928 -88.192 84.928 v 25.952 h 358.08 v -25.952 c -50.368 0.032 -72.16 -22.24 -72.16 -74.624 Z" fill="currentColor"/></svg>
